Coordinates
version=1
nRows=13
nColumns=40
inDegrees=yes

Units are S.I. units (second, meters, Newtons, ...)
Angles are in degrees.

endheader
time	pelvis_tilt	pelvis_list	pelvis_rotation	pelvis_tx	pelvis_ty	pelvis_tz	hip_flexion_r	hip_adduction_r	hip_rotation_r	knee_angle_r	knee_angle_r_beta	ankle_angle_r	subtalar_angle_r	mtp_angle_r	hip_flexion_l	hip_adduction_l	hip_rotation_l	knee_angle_l	knee_angle_l_beta	ankle_angle_l	subtalar_angle_l	mtp_angle_l	lumbar_extension	lumbar_bending	lumbar_rotation	arm_flex_r	arm_add_r	arm_rot_r	elbow_flex_r	pro_sup_r	wrist_flex_r	wrist_dev_r	arm_flex_l	arm_add_l	arm_rot_l	elbow_flex_l	pro_sup_l	wrist_flex_l	wrist_dev_l
     13.61678571	     -3.53395348	     -4.74409217	      6.41863887	      0.87045429	      0.91921103	      0.47282268	     -2.02194890	      4.27998532	    -17.17217045	     10.85973501	     10.85973501	     18.35658934	      2.74282407	     -3.24806091	     30.67359350	     -4.54713849	     -3.19059534	     18.79517751	     18.79517751	      2.56525238	    -11.07375987	      5.20144132	     -6.77874786	      6.08913002	      2.73864865	     38.28349629	    -16.62303228	    -10.71688791	     70.36284918	     45.27099499	      0.00000000	      0.00000000	    -11.45400126	     -9.32618622	     15.73325216	     25.08396342	     43.09177247	      0.00000000	      0.00000000
     13.62857143	     -3.53942505	     -4.61823581	      6.22495739	      0.87240190	      0.91798036	      0.47162001	     -2.58060381	      4.05815669	    -16.96507049	     11.05225103	     11.05225103	     18.77952498	      2.79698291	     -3.25004396	     30.33934711	     -4.50186984	     -3.58263033	     19.48460719	     19.48460719	      2.09141810	    -11.68161065	      5.20663057	     -6.63069614	      5.92103274	      2.83194389	     37.96911986	    -16.53214658	    -10.76849874	     70.56411434	     45.26533892	      0.00000000	      0.00000000	    -11.84372350	     -9.30392823	     15.72088624	     25.04858160	     43.09597847	      0.00000000	      0.00000000
     13.64035714	     -3.66466750	     -4.60064709	      6.07613239	      0.87411858	      0.91648662	      0.47023133	     -2.69964539	      3.82767591	    -16.93864207	     11.83230013	     11.83230013	     19.52362121	      2.87548719	     -2.78665424	     30.28190965	     -4.41182062	     -3.32109635	     20.35183513	     20.35183513	      1.31032662	    -13.18725276	      4.82603209	     -6.43853932	      5.89855700	      2.81836686	     37.33499576	    -16.29148773	    -11.16837590	     72.01726628	     45.23138043	      0.00000000	      0.00000000	    -12.22466701	     -9.27697086	     15.56064986	     25.42283609	     43.15562304	      0.00000000	      0.00000000
     13.65214286	     -3.66793314	     -4.42645171	      5.86159997	      0.87612474	      0.91556974	      0.46880307	     -3.04467898	      3.43034662	    -16.87545110	     12.52820473	     12.52820473	     20.52928561	      3.22990494	     -1.06834981	     29.87470880	     -4.23138183	     -3.29522552	     20.90191935	     20.90191935	      0.46865839	    -14.37781328	      3.74245160	     -6.41406061	      5.65032563	      3.40425770	     35.82751711	    -16.46689839	    -12.20852679	     74.12942021	     45.20706369	      0.00000000	      0.00000000	    -12.20387789	     -9.30642526	     15.10344428	     25.86006204	     43.38803179	      0.00000000	      0.00000000
     13.66392857	     -3.60444041	     -4.27202378	      5.64746583	      0.87812005	      0.91504923	      0.46723906	     -3.55443267	      3.10105389	    -16.64654686	     12.93512025	     12.93512025	     20.73088409	      3.20123394	     -1.14367928	     29.48525433	     -4.12900032	     -3.43175146	     21.63233939	     21.63233939	      0.45822361	    -14.86361469	      3.67108662	     -6.36819052	      5.51559589	      3.31821225	     35.17615875	    -16.18153169	    -12.14975970	     74.03607238	     45.20560641	      0.00000000	      0.00000000	    -12.25681155	     -9.15279423	     15.11260276	     25.84992873	     43.39156745	      0.00000000	      0.00000000
     13.67571429	     -3.48909886	     -4.10762672	      5.47127905	      0.88001879	      0.91475023	      0.46555139	     -3.91746346	      2.69126078	    -16.45444754	     13.72708845	     13.72708845	     20.92858149	      3.07116037	     -1.27108028	     29.17783199	     -3.97206331	     -3.32969552	     22.58568661	     22.58568661	      0.65549045	    -15.51946860	      3.50964154	     -6.43841200	      5.27817195	      3.20951691	     34.40111027	    -15.82419554	    -12.10522047	     73.99476427	     45.20249188	      0.00000000	      0.00000000	    -12.17336276	     -9.07097200	     15.09086864	     25.86942823	     43.40430632	      0.00000000	      0.00000000
     13.68750000	     -3.73077316	     -3.88748883	      5.28252136	      0.88133372	      0.91417859	      0.46356260	     -3.29905502	      1.95234107	    -16.38740261	     15.65431867	     15.65431867	     21.40176318	      2.82798110	     -1.36952102	     29.31845242	     -3.62036990	     -2.98388496	     23.57886522	     23.57886522	      1.28108012	    -16.42629880	      4.68889790	     -6.23685524	      5.08045843	      3.60924079	     32.96180495	    -15.85476466	    -13.07570898	     75.52139687	     45.19351176	      0.00000000	      0.00000000	    -11.59935080	     -8.93202070	     14.44101482	     25.71001448	     43.65142578	      0.00000000	      0.00000000
     13.69928571	     -3.71931966	     -3.70688161	      5.11719041	      0.88290821	      0.91440975	      0.46150957	     -3.14295862	      1.34555094	    -16.21249583	     17.17052393	     17.17052393	     21.42134673	      2.56866084	     -1.78607449	     29.05753251	     -3.40907940	     -2.94302621	     24.34285418	     24.34285418	      1.83137580	    -16.77659248	      4.69166139	     -6.24422788	      4.92543417	      3.52769900	     31.99704650	    -15.60819044	    -13.06385829	     75.26457058	     45.20031968	      0.00000000	      0.00000000	    -11.18821754	     -8.79063675	     14.33468999	     25.71281808	     43.70300054	      0.00000000	      0.00000000
     13.71107143	     -3.69433305	     -3.50811489	      4.96515440	      0.88437551	      0.91500988	      0.45920188	     -2.85510473	      0.64527422	    -16.07138152	     18.93519644	     18.93519644	     21.26906559	      2.31067208	     -2.41077754	     28.69297973	     -3.13866852	     -2.90756197	     24.93563111	     24.93563111	      2.53752231	    -17.07629522	      4.86139826	     -6.27254521	      4.77291868	      3.47837508	     30.86663583	    -15.41571692	    -13.07684595	     74.91915728	     45.20984425	      0.00000000	      0.00000000	    -10.61179918	     -8.64779235	     14.20620049	     25.75987612	     43.75793438	      0.00000000	      0.00000000
     13.72285714	     -3.72939411	     -3.31969192	      4.82652374	      0.88569892	      0.91585133	      0.45679285	     -2.30517121	     -0.13328618	    -15.95700055	     21.02712139	     21.02712139	     20.85214287	      2.06174103	     -3.42051687	     28.30334244	     -2.85102875	     -2.86774469	     25.34327827	     25.34327827	      3.34169385	    -17.27036269	      5.31586307	     -6.24559566	      4.63933928	      3.50215492	     29.52856864	    -15.28046847	    -13.12264527	     74.42534835	     45.22504556	      0.00000000	      0.00000000	     -9.89170331	     -8.49760296	     14.01557769	     25.78714939	     43.83053735	      0.00000000	      0.00000000
     13.73464286	     -3.75066907	     -3.11431211	      4.71814695	      0.88691363	      0.91700736	      0.45419005	     -1.76477060	     -0.96670165	    -15.92208941	     22.98061447	     22.98061447	     19.16916919	      1.54471364	     -7.55180715	     27.91147820	     -2.48290776	     -2.70757572	     25.81492608	     25.81492608	      5.05206430	    -17.25003981	      8.08554288	     -6.25516460	      4.51155938	      3.72880481	     27.93125697	    -15.22068196	    -13.60054608	     73.92892872	     45.26505250	      0.00000000	      0.00000000	     -8.68551797	     -8.12309897	     13.02153013	     25.11393736	     44.15223781	      0.00000000	      0.00000000
     13.74642857	     -3.72557173	     -2.95200987	      4.56547713	      0.88812745	      0.91831776	      0.45166667	     -0.94312449	     -1.81951423	    -15.63440615	     25.62078407	     25.62078407	     18.42192177	      1.13028951	     -8.43426217	     27.26138547	     -2.26265393	     -2.91627571	     25.85574802	     25.85574802	      5.66825800	    -17.16886342	      7.87783859	     -6.32461006	      4.44262026	      3.64806103	     26.54236738	    -15.02598331	    -13.43583934	     73.10751037	     45.28227765	      0.00000000	      0.00000000	     -7.92616129	     -8.05807445	     12.85221357	     25.43656336	     44.20880971	      0.00000000	      0.00000000
     13.75821429	     -3.78966406	     -2.81411897	      4.41517324	      0.88917872	      0.91958868	      0.44914962	      0.16620244	     -2.71337645	    -15.33847994	     28.52770544	     28.52770544	     17.27644246	      0.66127192	     -9.81308677	     26.61832274	     -2.03644098	     -3.08918928	     25.70393065	     25.70393065	      6.22425297	    -17.08332315	      7.80651352	     -6.26791657	      4.39540048	      3.70646052	     25.00578666	    -14.96127226	    -13.29469409	     71.91826047	     45.31227746	      0.00000000	      0.00000000	     -7.02947819	     -7.98012934	     12.60297380	     25.83332819	     44.28358651	      0.00000000	      0.00000000
